<svg id="Livello_2" data-name="Livello 2" xmlns="http://www.w3.org/2000/svg" width="300" height="100" viewBox="0 0 300 100">
  <title>logo-taxi</title>
  <g>
    <path d="M99.4651,25.0918H78.9744V88.7461H60.9851V25.0918H40.8669V11.2539H99.4651V25.0918Z"/>
    <path d="M141.511,73.6836H118.4656l-4.4707,15.0625H95.0476l25.2808-77.4922h9.6333v0.0532l0.0532-.0532h9.6333l25.334,77.4922H146.0349Zm-18.894-13.8379H137.36L130.1213,35.79H129.802Z"/>
    <path d="M198.8313,37.3862l12.7734-26.1323h20.7578L210.1672,49.6807l23.8984,39.0654H212.2434L199.0442,62.082,185.845,88.7461H165.0886l22.78-39.0654L165.6741,11.2539h20.5967Z"/>
    <path d="M259.1331,88.7461H241.1965V11.2539h17.9365V88.7461Z"/>
  </g>
</svg>
